<svg version="1.1" id="Layer_1" xmlns="http://www.w3.org/2000/svg" xmlns:xlink="http://www.w3.org/1999/xlink" x="0px" y="0px"
	 width="160" height="100" viewBox="0 0 449 278" enable-background="new 0 0 449 278" xml:space="preserve">

<path fill="#FFFFFF" opacity="1.000000" stroke="none" 
	d="
M291.000000,279.000000 
	C194.000000,279.000000 97.500000,279.000000 1.000000,279.000000 
	C1.000000,186.333328 1.000000,93.666664 1.000000,1.000000 
	C150.666672,1.000000 300.333344,1.000000 450.000000,1.000000 
	C450.000000,93.666664 450.000000,186.333328 450.000000,279.000000 
	C397.166656,279.000000 344.333344,279.000000 291.000000,279.000000 
M97.448730,104.287949 
	C96.855408,104.291824 96.262085,104.295700 94.777145,104.222061 
	C85.664658,104.207596 76.551331,104.260818 67.440094,104.146568 
	C63.600815,104.098419 62.255188,105.448540 63.537289,109.277870 
	C64.639130,112.568832 65.721024,115.924286 66.237495,119.338089 
	C66.819069,123.182152 69.008057,124.006088 72.366379,123.930397 
	C77.665627,123.810974 82.973007,123.802895 88.268166,123.992699 
	C89.171036,124.025063 90.030037,125.280968 90.143669,126.302002 
	C85.356758,126.515999 80.571243,126.865715 75.782646,126.914696 
	C66.839844,127.006172 65.623405,128.164658 66.107361,136.683273 
	C63.607559,137.515335 61.122776,138.342407 58.637993,139.169479 
	C66.006676,139.760468 73.033257,138.830185 80.070274,138.743073 
	C86.624176,138.661942 93.189194,139.478241 99.749313,139.899475 
	C99.754395,139.522842 99.759483,139.146225 99.764565,138.769608 
	C97.430206,138.134781 95.095840,137.499954 93.254570,136.999237 
	C93.076607,132.966354 92.922493,129.473816 93.206734,125.369942 
	C94.513527,121.923332 95.820320,118.476730 97.606712,114.510178 
	C98.564423,111.732140 99.522125,108.954102 101.060944,105.895065 
	C103.718536,104.329308 106.376129,102.763557 109.754707,100.773026 
	C108.694138,100.377022 107.025436,99.143257 105.524368,99.321480 
	C102.463646,99.684860 98.581879,99.540192 98.344887,104.344200 
	C98.344887,104.344200 98.335564,104.423546 97.448730,104.287949 
M162.902786,126.175087 
	C160.822403,126.175087 158.742020,126.175087 156.717148,126.175087 
	C156.249542,132.937134 157.386917,135.506180 161.268188,137.175110 
	C165.450012,138.973282 170.635956,137.916290 173.100296,134.763504 
	C175.802643,131.306229 175.558640,125.393860 172.226410,121.897568 
	C170.198761,119.770081 167.707077,118.084869 164.761642,115.654617 
	C168.587250,115.654617 171.528748,115.654617 174.522858,115.654617 
	C174.807556,110.592407 172.955688,107.311806 168.116608,106.172676 
	C163.824280,105.162270 158.839584,107.137566 157.247284,110.375702 
	C155.467682,113.994736 156.859482,118.620735 160.681824,121.819916 
	C162.077499,122.988037 163.460495,124.171310 164.282333,125.767883 
	C164.103027,125.920151 163.923737,126.072418 162.902786,126.175087 
M177.370071,105.745491 
	C177.370071,116.355286 177.370071,126.965080 177.370071,137.781189 
	C180.053421,137.781189 182.284134,137.781189 184.945740,137.781189 
	C184.945740,130.761200 184.834702,123.978294 185.022446,117.203659 
	C185.070435,115.471657 186.063843,113.765854 186.622894,112.048004 
	C187.289688,113.844971 188.469955,115.624504 188.531662,117.442017 
	C188.761261,124.204704 188.623276,130.979874 188.623276,137.819336 
	C191.247864,137.819336 193.354324,137.819336 195.944931,137.819336 
	C195.944931,130.178604 196.188599,122.727058 195.818649,115.306099 
	C195.680878,112.542526 194.837585,109.014252 192.966324,107.381989 
	C191.377960,105.996483 187.847443,106.837494 184.827255,106.674484 
	C184.827255,105.347610 184.827255,103.396568 184.827255,100.894699 
	C181.886551,102.004791 177.106140,98.012497 177.370071,105.745491 
M302.320312,107.736740 
	C298.447540,116.511932 299.791473,125.605759 301.228119,134.523956 
	C301.756927,137.806534 305.123535,138.762024 308.487030,137.506958 
	C309.311432,137.199326 310.198151,136.437622 310.916595,136.581573 
	C313.251556,137.049423 315.521820,137.840317 318.164673,138.607819 
	C318.164673,125.506020 318.164673,113.411224 318.164673,101.401062 
	C315.741669,101.401062 313.538635,101.401062 311.432220,101.401062 
	C311.222992,103.540291 311.055695,105.250565 310.984070,105.982857 
	C307.858063,106.455971 305.389069,106.829643 302.320312,107.736740 
M230.426758,136.967316 
	C232.678421,137.444427 234.930069,137.921555 237.829147,138.535858 
	C237.829147,130.507492 237.756790,123.386681 237.885941,116.269524 
	C237.914139,114.715775 238.662003,113.175072 239.078430,111.628365 
	C239.730789,111.749290 240.383133,111.870216 241.035492,111.991142 
	C241.035492,120.522125 241.035492,129.053101 241.035492,137.694275 
	C243.978378,137.694275 246.173050,137.694275 248.631531,137.694275 
	C248.631531,129.202667 248.982468,121.037888 248.414276,112.937576 
	C248.247284,110.556747 245.838196,106.880974 243.821014,106.385246 
	C239.654678,105.361389 235.060928,106.076836 230.346039,106.076836 
	C230.346039,116.440689 230.346039,126.245224 230.426758,136.967316 
M209.047516,125.356277 
	C209.068436,126.518913 209.030960,127.686035 209.120010,128.843430 
	C209.606125,135.160370 212.638763,138.104401 218.539551,138.032883 
	C224.446976,137.961258 227.431015,134.931870 227.611191,128.559464 
	C227.737961,124.075981 227.793869,119.578590 227.590225,115.100655 
	C227.329727,109.372597 223.829971,106.012337 218.479889,105.968575 
	C213.131073,105.924820 209.639587,109.169861 209.175339,114.934700 
	C208.922592,118.073204 209.076828,121.244484 209.047516,125.356277 
M294.527313,138.015488 
	C295.411743,137.211197 297.045685,136.423676 297.064148,135.600021 
	C297.238922,127.787048 297.482574,119.941971 296.894897,112.167480 
	C296.733002,110.025620 294.151031,106.784225 292.160706,106.332268 
	C288.122223,105.415237 283.729492,106.058334 279.337280,106.058334 
	C279.337280,116.880478 279.337280,127.270699 279.337280,137.837677 
	C281.716034,137.837677 283.831390,137.837677 286.136414,137.837677 
	C286.998413,129.085983 285.423035,120.235687 288.100555,111.642891 
	C289.456299,113.213844 290.002869,114.817024 290.030426,116.429092 
	C290.135773,122.581932 290.218414,128.742508 290.010956,134.890121 
	C289.913269,137.785080 291.241028,138.294128 294.527313,138.015488 
M339.318542,128.604874 
	C339.381927,122.347549 334.415100,119.735909 329.112488,115.821899 
	C333.265106,115.821899 336.095947,115.821899 338.930817,115.821899 
	C339.340881,110.398758 337.312317,107.241051 332.475220,106.157417 
	C328.113953,105.180382 323.108551,107.127762 321.747894,110.566223 
	C320.014343,114.946892 321.224182,118.686272 324.936066,121.620277 
	C326.384064,122.764832 327.769592,123.988396 329.183594,125.175972 
	C328.997650,125.512260 328.811707,125.848541 328.625763,126.184830 
	C326.210205,126.184830 323.794647,126.184830 321.440765,126.184830 
	C320.493561,133.513992 322.732849,137.165985 328.385223,137.949387 
	C333.526611,138.661987 339.628113,135.783722 339.318542,128.604874 
M154.036438,113.050140 
	C152.537399,107.543678 148.509705,105.052025 142.880402,106.148712 
	C137.893555,107.120224 136.260040,109.722786 137.175232,116.985069 
	C140.220581,115.457596 142.829590,114.148972 145.576035,112.771416 
	C148.082535,115.794861 147.700607,117.292755 143.287506,118.951073 
	C136.375946,121.548256 133.651779,128.430267 137.051239,134.962158 
	C138.592087,137.922806 141.053589,138.684052 144.168488,137.436798 
	C145.034775,137.089920 146.030289,136.606400 146.872543,136.747284 
	C149.149048,137.128113 151.375015,137.811066 154.045425,138.480576 
	C154.045425,129.511581 154.045425,121.726654 154.036438,113.050140 
M129.416687,100.990463 
	C126.304344,100.990463 123.192009,100.990463 120.121323,100.990463 
	C120.121323,113.622559 120.121323,125.686707 120.121323,137.686325 
	C122.499931,137.686325 124.563988,137.686325 127.102005,137.686325 
	C127.102005,131.967407 127.102005,126.560097 127.102005,121.202110 
	C129.533554,121.041748 131.472595,120.913864 133.439774,120.784126 
	C133.439774,118.375084 133.439774,116.314781 133.439774,114.134888 
	C131.180649,114.028221 129.236313,113.936417 127.185555,113.839592 
	C127.185555,111.795792 127.185555,110.074837 127.185555,107.980537 
	C129.544373,107.980537 131.641525,107.980537 133.952286,107.980537 
	C133.952286,105.540398 133.952286,103.477882 133.952286,100.990517 
	C132.634918,100.990517 131.507431,100.990517 129.416687,100.990463 
M263.288239,113.992256 
	C261.859894,113.903755 260.431519,113.815254 259.141052,113.735298 
	C259.141052,111.645264 259.141052,110.033447 259.141052,108.204117 
	C261.581116,108.051399 263.818512,107.911362 266.009583,107.774223 
	C266.009583,105.386261 266.009583,103.429977 266.009583,101.253868 
	C261.278229,101.253868 256.713409,101.253868 252.107864,101.253868 
	C252.107864,113.586914 252.107864,125.654449 252.107864,137.699432 
	C254.463348,137.699432 256.529205,137.699432 259.082703,137.699432 
	C259.082703,131.991623 259.082703,126.585983 259.082703,121.195747 
	C261.517761,121.041107 263.458405,120.917862 266.499664,120.724724 
	C265.615326,118.160362 264.899750,116.085320 263.288239,113.992256 
M268.628998,122.497375 
	C268.628998,127.588837 268.628998,132.680298 268.628998,137.709717 
	C271.300903,137.709717 273.376373,137.709717 275.464417,137.709717 
	C275.464417,127.000778 275.464417,116.611748 275.464417,106.272156 
	C273.057037,106.272156 270.979492,106.272156 268.629150,106.272156 
	C268.629150,111.545265 268.629150,116.523666 268.628998,122.497375 
M198.950317,124.492432 
	C198.950317,128.914185 198.950317,133.335938 198.950317,137.696686 
	C201.643204,137.696686 203.707748,137.696686 205.738037,137.696686 
	C205.738037,126.998871 205.738037,116.623688 205.738037,106.303467 
	C203.356491,106.303467 201.291946,106.303467 198.950317,106.303467 
	C198.950317,112.244850 198.950317,117.870605 198.950317,124.492432 
M268.633911,103.169586 
	C270.760284,103.931549 272.886688,104.693512 275.495544,105.628365 
	C275.495544,102.694130 275.495544,100.984825 275.495544,98.722801 
	C272.930176,100.154823 268.361237,96.104446 268.633911,103.169586 
M205.871033,104.196358 
	C205.871033,102.604050 205.871033,101.011742 205.871033,99.307877 
	C203.446854,99.307877 201.256439,99.307877 198.877747,99.307877 
	C198.971634,101.257286 199.048462,102.852669 199.141388,104.782272 
	C201.328552,104.782272 203.257202,104.782272 205.871033,104.196358 
z"/>
<path fill="#2F3E48" opacity="1.000000" stroke="none" 
	d="
M177.370209,105.278412 
	C177.106140,98.012497 181.886551,102.004791 184.827255,100.894699 
	C184.827255,103.396568 184.827255,105.347610 184.827255,106.674484 
	C187.847443,106.837494 191.377960,105.996483 192.966324,107.381989 
	C194.837585,109.014252 195.680878,112.542526 195.818649,115.306099 
	C196.188599,122.727058 195.944931,130.178604 195.944931,137.819336 
	C193.354324,137.819336 191.247864,137.819336 188.623276,137.819336 
	C188.623276,130.979874 188.761261,124.204704 188.531662,117.442017 
	C188.469955,115.624504 187.289688,113.844971 186.622894,112.048004 
	C186.063843,113.765854 185.070435,115.471657 185.022446,117.203659 
	C184.834702,123.978294 184.945740,130.761200 184.945740,137.781189 
	C182.284134,137.781189 180.053421,137.781189 177.370071,137.781189 
	C177.370071,126.965080 177.370071,116.355286 177.370209,105.278412 
z"/>
<path fill="#2B3A44" opacity="1.000000" stroke="none" 
	d="
M302.620178,107.470032 
	C305.389069,106.829643 307.858063,106.455971 310.984070,105.982857 
	C311.055695,105.250565 311.222992,103.540291 311.432220,101.401062 
	C313.538635,101.401062 315.741669,101.401062 318.164673,101.401062 
	C318.164673,113.411224 318.164673,125.506020 318.164673,138.607819 
	C315.521820,137.840317 313.251556,137.049423 310.916595,136.581573 
	C310.198151,136.437622 309.311432,137.199326 308.487030,137.506958 
	C305.123535,138.762024 301.756927,137.806534 301.228119,134.523956 
	C299.791473,125.605759 298.447540,116.511932 302.620178,107.470032 
M307.250610,127.126839 
	C307.974487,128.751816 308.698395,130.376785 309.422272,132.001755 
	C310.049255,130.333099 311.097015,128.694199 311.217560,126.989738 
	C311.486298,123.188622 311.436798,119.345840 311.202515,115.539406 
	C311.127502,114.320618 310.064484,113.162643 309.453522,111.976845 
	C308.720520,113.231705 307.467987,114.441780 307.355194,115.750107 
	C307.056732,119.212883 307.251556,122.718185 307.250610,127.126839 
z"/>
<path fill="#374650" opacity="1.000000" stroke="none" 
	d="
M230.386398,136.508545 
	C230.346039,126.245224 230.346039,116.440689 230.346039,106.076836 
	C235.060928,106.076836 239.654678,105.361389 243.821014,106.385246 
	C245.838196,106.880974 248.247284,110.556747 248.414276,112.937576 
	C248.982468,121.037888 248.631531,129.202667 248.631531,137.694275 
	C246.173050,137.694275 243.978378,137.694275 241.035492,137.694275 
	C241.035492,129.053101 241.035492,120.522125 241.035492,111.991142 
	C240.383133,111.870216 239.730789,111.749290 239.078430,111.628365 
	C238.662003,113.175072 237.914139,114.715775 237.885941,116.269524 
	C237.756790,123.386681 237.829147,130.507492 237.829147,138.535858 
	C234.930069,137.921555 232.678421,137.444427 230.386398,136.508545 
z"/>
<path fill="#31404A" opacity="1.000000" stroke="none" 
	d="
M209.047516,124.878632 
	C209.076828,121.244484 208.922592,118.073204 209.175339,114.934700 
	C209.639587,109.169861 213.131073,105.924820 218.479889,105.968575 
	C223.829971,106.012337 227.329727,109.372597 227.590225,115.100655 
	C227.793869,119.578590 227.737961,124.075981 227.611191,128.559464 
	C227.431015,134.931870 224.446976,137.961258 218.539551,138.032883 
	C212.638763,138.104401 209.606125,135.160370 209.120010,128.843430 
	C209.030960,127.686035 209.068436,126.518913 209.047516,124.878632 
M220.196335,120.569641 
	C220.171722,118.418633 220.290131,116.251144 220.045380,114.125488 
	C219.959030,113.375710 218.984619,112.728195 218.415680,112.033989 
	C217.844101,112.708954 216.794952,113.371414 216.776886,114.060883 
	C216.638260,119.353004 216.638107,124.651970 216.774612,129.944183 
	C216.792511,130.638611 217.829285,131.306747 218.394165,131.987061 
	C218.976852,131.315872 220.009125,130.678680 220.062881,129.967499 
	C220.274490,127.168602 220.178314,124.346428 220.196335,120.569641 
z"/>
<path fill="#293843" opacity="1.000000" stroke="none" 
	d="
M294.056213,138.015900 
	C291.241028,138.294128 289.913269,137.785080 290.010956,134.890121 
	C290.218414,128.742508 290.135773,122.581932 290.030426,116.429092 
	C290.002869,114.817024 289.456299,113.213844 288.100555,111.642891 
	C285.423035,120.235687 286.998413,129.085983 286.136414,137.837677 
	C283.831390,137.837677 281.716034,137.837677 279.337280,137.837677 
	C279.337280,127.270699 279.337280,116.880478 279.337280,106.058334 
	C283.729492,106.058334 288.122223,105.415237 292.160706,106.332268 
	C294.151031,106.784225 296.733002,110.025620 296.894897,112.167480 
	C297.482574,119.941971 297.238922,127.787048 297.064148,135.600021 
	C297.045685,136.423676 295.411743,137.211197 294.056213,138.015900 
z"/>
<path fill="#2B3A44" opacity="1.000000" stroke="none" 
	d="
M339.318665,128.980560 
	C339.628113,135.783722 333.526611,138.661987 328.385223,137.949387 
	C322.732849,137.165985 320.493561,133.513992 321.440765,126.184830 
	C323.794647,126.184830 326.210205,126.184830 328.625763,126.184830 
	C328.811707,125.848541 328.997650,125.512260 329.183594,125.175972 
	C327.769592,123.988396 326.384064,122.764832 324.936066,121.620277 
	C321.224182,118.686272 320.014343,114.946892 321.747894,110.566223 
	C323.108551,107.127762 328.113953,105.180382 332.475220,106.157417 
	C337.312317,107.241051 339.340881,110.398758 338.930817,115.821899 
	C336.095947,115.821899 333.265106,115.821899 329.112488,115.821899 
	C334.415100,119.735909 339.381927,122.347549 339.318665,128.980560 
z"/>
<path fill="#2D3C47" opacity="1.000000" stroke="none" 
	d="
M164.849274,125.347672 
	C163.460495,124.171310 162.077499,122.988037 160.681824,121.819916 
	C156.859482,118.620735 155.467682,113.994736 157.247284,110.375702 
	C158.839584,107.137566 163.824280,105.162270 168.116608,106.172676 
	C172.955688,107.311806 174.807556,110.592407 174.522858,115.654617 
	C171.528748,115.654617 168.587250,115.654617 164.761642,115.654617 
	C167.707077,118.084869 170.198761,119.770081 172.226410,121.897568 
	C175.558640,125.393860 175.802643,131.306229 173.100296,134.763504 
	C170.635956,137.916290 165.450012,138.973282 161.268188,137.175110 
	C157.386917,135.506180 156.249542,132.937134 156.717148,126.175087 
	C158.742020,126.175087 160.822403,126.175087 163.325531,126.616829 
	C164.200256,128.677490 164.652222,130.296417 165.104172,131.915344 
	C165.683807,131.721725 166.781891,131.446579 166.766159,131.346542 
	C166.478622,129.517502 166.081619,127.703484 165.635406,125.904236 
	C165.576874,125.668243 165.121063,125.530777 164.849274,125.347672 
z"/>
<path fill="#293843" opacity="1.000000" stroke="none" 
	d="
M154.040924,113.495941 
	C154.045425,121.726654 154.045425,129.511581 154.045425,138.480576 
	C151.375015,137.811066 149.149048,137.128113 146.872543,136.747284 
	C146.030289,136.606400 145.034775,137.089920 144.168488,137.436798 
	C141.053589,138.684052 138.592087,137.922806 137.051239,134.962158 
	C133.651779,128.430267 136.375946,121.548256 143.287506,118.951073 
	C147.700607,117.292755 148.082535,115.794861 145.576035,112.771416 
	C142.829590,114.148972 140.220581,115.457596 137.175232,116.985069 
	C136.260040,109.722786 137.893555,107.120224 142.880402,106.148712 
	C148.509705,105.052025 152.537399,107.543678 154.040924,113.495941 
M143.995422,122.894196 
	C143.742966,125.294113 143.350449,127.692863 143.330383,130.094727 
	C143.324966,130.745575 144.445572,131.405838 145.049332,132.061783 
	C145.657684,131.432114 146.729492,130.844452 146.791046,130.165222 
	C147.011963,127.727867 146.952164,125.255638 146.795166,122.809639 
	C146.781113,122.590897 145.298965,122.466385 143.995422,122.894196 
z"/>
<path fill="#263540" opacity="1.000000" stroke="none" 
	d="
M129.898315,100.990494 
	C131.507431,100.990517 132.634918,100.990517 133.952286,100.990517 
	C133.952286,103.477882 133.952286,105.540398 133.952286,107.980537 
	C131.641525,107.980537 129.544373,107.980537 127.185555,107.980537 
	C127.185555,110.074837 127.185555,111.795792 127.185555,113.839592 
	C129.236313,113.936417 131.180649,114.028221 133.439774,114.134888 
	C133.439774,116.314781 133.439774,118.375084 133.439774,120.784126 
	C131.472595,120.913864 129.533554,121.041748 127.102005,121.202110 
	C127.102005,126.560097 127.102005,131.967407 127.102005,137.686325 
	C124.563988,137.686325 122.499931,137.686325 120.121323,137.686325 
	C120.121323,125.686707 120.121323,113.622559 120.121323,100.990463 
	C123.192009,100.990463 126.304344,100.990463 129.898315,100.990494 
z"/>
<path fill="#263540" opacity="1.000000" stroke="none" 
	d="
M263.736206,114.001266 
	C264.899750,116.085320 265.615326,118.160362 266.499664,120.724724 
	C263.458405,120.917862 261.517761,121.041107 259.082703,121.195747 
	C259.082703,126.585983 259.082703,131.991623 259.082703,137.699432 
	C256.529205,137.699432 254.463348,137.699432 252.107864,137.699432 
	C252.107864,125.654449 252.107864,113.586914 252.107864,101.253868 
	C256.713409,101.253868 261.278229,101.253868 266.009583,101.253868 
	C266.009583,103.429977 266.009583,105.386261 266.009583,107.774223 
	C263.818512,107.911362 261.581116,108.051399 259.141052,108.204117 
	C259.141052,110.033447 259.141052,111.645264 259.141052,113.735298 
	C260.431519,113.815254 261.859894,113.903755 263.736206,114.001266 
z"/>
<path fill="#3DBE3D" opacity="1.000000" stroke="none" 
	d="
M92.768372,125.981262 
	C92.922493,129.473816 93.076607,132.966354 93.254570,136.999237 
	C95.095840,137.499954 97.430206,138.134781 99.764565,138.769608 
	C99.759483,139.146225 99.754395,139.522842 99.749313,139.899475 
	C93.189194,139.478241 86.624176,138.661942 80.070274,138.743073 
	C73.033257,138.830185 66.006676,139.760468 58.637993,139.169479 
	C61.122776,138.342407 63.607559,137.515335 66.107361,136.683273 
	C65.623405,128.164658 66.839844,127.006172 75.782646,126.914696 
	C80.571243,126.865715 85.356758,126.515999 90.836411,126.136948 
	C91.942230,125.975021 92.355301,125.978142 92.768372,125.981262 
M77.075005,129.995575 
	C77.075005,131.921021 77.075005,133.846481 77.075005,135.887238 
	C79.033630,135.887238 80.634010,135.887238 82.459175,135.887238 
	C82.359390,133.752441 82.270401,131.848602 82.159019,129.465729 
	C80.627777,129.465729 79.196198,129.465729 77.075005,129.995575 
M74.564377,133.903198 
	C73.852203,132.520737 73.439400,130.710068 72.311836,129.921768 
	C71.669731,129.472839 69.485588,130.370972 68.706596,131.274963 
	C68.177444,131.889038 68.695541,134.529449 69.066116,134.600952 
	C70.696152,134.915466 72.442833,134.625458 74.564377,133.903198 
M84.937241,134.007645 
	C86.443604,134.470673 87.998596,135.359650 89.433372,135.195816 
	C90.043045,135.126205 90.903915,132.761658 90.699661,131.608536 
	C90.558960,130.814178 88.366508,129.536484 87.823662,129.829971 
	C86.551651,130.517639 85.720024,132.019897 84.937241,134.007645 
z"/>
<path fill="#30BA30" opacity="1.000000" stroke="none" 
	d="
M92.987549,125.675598 
	C92.355301,125.978142 91.942230,125.975021 91.219238,125.971771 
	C90.030037,125.280968 89.171036,124.025063 88.268166,123.992699 
	C82.973007,123.802895 77.665627,123.810974 72.366379,123.930397 
	C69.008057,124.006088 66.819069,123.182152 66.237495,119.338089 
	C65.721024,115.924286 64.639130,112.568832 63.537289,109.277870 
	C62.255188,105.448540 63.600815,104.098419 67.440094,104.146568 
	C76.551331,104.260818 85.664658,104.207596 95.301041,104.568710 
	C95.894051,105.326126 95.963158,105.736885 95.569702,106.246979 
	C85.181786,106.346306 75.256432,106.346306 65.279175,106.346306 
	C66.378578,111.177353 67.092346,115.232239 68.314941,119.127419 
	C68.682510,120.298500 70.475037,121.833946 71.600113,121.821991 
	C78.177689,121.752090 84.756546,121.344200 91.317566,120.828819 
	C92.040535,120.772026 92.652901,119.307289 93.316566,118.495560 
	C93.119064,118.029701 92.921570,117.563850 92.724068,117.097992 
	C85.802200,117.097992 78.880341,117.097992 71.971390,116.830750 
	C72.003807,116.207359 72.023315,115.851212 72.492172,115.368408 
	C80.248718,115.141396 87.555916,115.041039 95.240219,114.960953 
	C96.120583,114.997536 96.623848,115.013832 97.127121,115.030128 
	C95.820320,118.476730 94.513527,121.923332 92.987549,125.675598 
z"/>
<path fill="#2D3C47" opacity="1.000000" stroke="none" 
	d="
M268.629089,121.999718 
	C268.629150,116.523666 268.629150,111.545265 268.629150,106.272156 
	C270.979492,106.272156 273.057037,106.272156 275.464417,106.272156 
	C275.464417,116.611748 275.464417,127.000778 275.464417,137.709717 
	C273.376373,137.709717 271.300903,137.709717 268.628998,137.709717 
	C268.628998,132.680298 268.628998,127.588837 268.629089,121.999718 
z"/>
<path fill="#293843" opacity="1.000000" stroke="none" 
	d="
M198.950317,123.994392 
	C198.950317,117.870605 198.950317,112.244850 198.950317,106.303467 
	C201.291946,106.303467 203.356491,106.303467 205.738037,106.303467 
	C205.738037,116.623688 205.738037,126.998871 205.738037,137.696686 
	C203.707748,137.696686 201.643204,137.696686 198.950317,137.696686 
	C198.950317,133.335938 198.950317,128.914185 198.950317,123.994392 
z"/>
<path fill="#3DBE3D" opacity="1.000000" stroke="none" 
	d="
M97.366913,114.770157 
	C96.623848,115.013832 96.120583,114.997536 95.331131,114.540710 
	C93.850891,113.474838 92.671463,112.344002 91.460289,112.308899 
	C85.152550,112.126114 78.836487,112.251289 72.523888,112.199692 
	C71.042618,112.187584 69.563553,111.906044 68.083473,111.748459 
	C68.102608,111.281044 68.121742,110.813629 68.140884,110.346207 
	C69.640739,110.197762 71.139793,109.931435 72.640602,109.921097 
	C79.451698,109.874161 86.270515,110.065659 93.069061,109.769600 
	C94.573372,109.704086 96.006615,108.006706 97.663483,106.846100 
	C98.014778,105.895493 98.175171,105.159523 98.335564,104.423546 
	C98.335564,104.423546 98.344887,104.344200 98.704720,104.267532 
	C99.536316,104.852600 100.008072,105.514328 100.479836,106.176064 
	C99.522125,108.954102 98.564423,111.732140 97.366913,114.770157 
z"/>
<path fill="#31404A" opacity="1.000000" stroke="none" 
	d="
M268.625671,102.763290 
	C268.361237,96.104446 272.930176,100.154823 275.495544,98.722801 
	C275.495544,100.984825 275.495544,102.694130 275.495544,105.628365 
	C272.886688,104.693512 270.760284,103.931549 268.625671,102.763290 
z"/>
<path fill="#B8E7B8" opacity="1.000000" stroke="none" 
	d="
M100.770386,106.035568 
	C100.008072,105.514328 99.536316,104.852600 98.734344,104.240723 
	C98.581879,99.540192 102.463646,99.684860 105.524368,99.321480 
	C107.025436,99.143257 108.694138,100.377022 109.754707,100.773026 
	C106.376129,102.763557 103.718536,104.329308 100.770386,106.035568 
z"/>
<path fill="#31404A" opacity="1.000000" stroke="none" 
	d="
M205.528442,104.489319 
	C203.257202,104.782272 201.328552,104.782272 199.141388,104.782272 
	C199.048462,102.852669 198.971634,101.257286 198.877747,99.307877 
	C201.256439,99.307877 203.446854,99.307877 205.871033,99.307877 
	C205.871033,101.011742 205.871033,102.604050 205.528442,104.489319 
z"/>
<path fill="#B8E7B8" opacity="1.000000" stroke="none" 
	d="
M97.892151,104.355743 
	C98.175171,105.159523 98.014778,105.895493 97.371765,106.784576 
	C96.603523,106.674339 96.317894,106.410988 96.032272,106.147644 
	C95.963158,105.736885 95.894051,105.326126 95.746849,104.607468 
	C96.262085,104.295700 96.855408,104.291824 97.892151,104.355743 
z"/>
<path fill="#E6E8E9" opacity="1.000000" stroke="none" 
	d="
M307.250336,126.666702 
	C307.251556,122.718185 307.056732,119.212883 307.355194,115.750107 
	C307.467987,114.441780 308.720520,113.231705 309.453522,111.976852 
	C310.064484,113.162643 311.127502,114.320618 311.202515,115.539406 
	C311.436798,119.345840 311.486298,123.188622 311.217560,126.989738 
	C311.097015,128.694199 310.049255,130.333099 309.422272,132.001755 
	C308.698395,130.376785 307.974487,128.751816 307.250336,126.666702 
z"/>
<path fill="#FFFFFF" opacity="1.000000" stroke="none" 
	d="
M220.196350,121.051270 
	C220.178314,124.346428 220.274490,127.168602 220.062881,129.967499 
	C220.009125,130.678680 218.976852,131.315872 218.394165,131.987061 
	C217.829285,131.306747 216.792511,130.638611 216.774612,129.944183 
	C216.638107,124.651970 216.638260,119.353004 216.776886,114.060883 
	C216.794952,113.371414 217.844101,112.708954 218.415680,112.033989 
	C218.984619,112.728195 219.959030,113.375710 220.045380,114.125488 
	C220.290131,116.251144 220.171722,118.418633 220.196350,121.051270 
z"/>
<path fill="#FFFFFF" opacity="1.000000" stroke="none" 
	d="
M164.565796,125.557777 
	C165.121063,125.530777 165.576874,125.668243 165.635406,125.904236 
	C166.081619,127.703484 166.478622,129.517502 166.766159,131.346542 
	C166.781891,131.446579 165.683807,131.721725 165.104172,131.915344 
	C164.652222,130.296417 164.200256,128.677490 163.746368,126.641624 
	C163.923737,126.072418 164.103027,125.920151 164.565796,125.557777 
z"/>
<path fill="#D9DCDE" opacity="1.000000" stroke="none" 
	d="
M144.247040,122.596153 
	C145.298965,122.466385 146.781113,122.590897 146.795166,122.809639 
	C146.952164,125.255638 147.011963,127.727867 146.791046,130.165222 
	C146.729492,130.844452 145.657684,131.432114 145.049332,132.061783 
	C144.445572,131.405838 143.324966,130.745575 143.330383,130.094727 
	C143.350449,127.692863 143.742966,125.294113 144.247040,122.596153 
z"/>
<path fill="#E6E8E9" opacity="1.000000" stroke="none" 
	d="
M77.419807,129.730652 
	C79.196198,129.465729 80.627777,129.465729 82.159019,129.465729 
	C82.270401,131.848602 82.359390,133.752441 82.459175,135.887238 
	C80.634010,135.887238 79.033630,135.887238 77.075005,135.887238 
	C77.075005,133.846481 77.075005,131.921021 77.419807,129.730652 
z"/>
<path fill="#C3EBC3" opacity="1.000000" stroke="none" 
	d="
M74.355804,134.228882 
	C72.442833,134.625458 70.696152,134.915466 69.066116,134.600952 
	C68.695541,134.529449 68.177444,131.889038 68.706596,131.274963 
	C69.485588,130.370972 71.669731,129.472839 72.311836,129.921768 
	C73.439400,130.710068 73.852203,132.520737 74.355804,134.228882 
z"/>
<path fill="#C3EBC3" opacity="1.000000" stroke="none" 
	d="
M84.823685,133.600006 
	C85.720024,132.019897 86.551651,130.517639 87.823662,129.829971 
	C88.366508,129.536484 90.558960,130.814178 90.699661,131.608536 
	C90.903915,132.761658 90.043045,135.126205 89.433372,135.195816 
	C87.998596,135.359650 86.443604,134.470673 84.823685,133.600006 
z"/>
<path fill="#F0FAF0" opacity="1.000000" stroke="none" 
	d="
M95.569702,106.246979 
	C96.317894,106.410988 96.603523,106.674339 97.180862,106.999207 
	C96.006615,108.006706 94.573372,109.704086 93.069061,109.769600 
	C86.270515,110.065659 79.451698,109.874161 72.640602,109.921097 
	C71.139793,109.931435 69.640739,110.197762 68.140884,110.346207 
	C68.121742,110.813629 68.102608,111.281044 68.083473,111.748459 
	C69.563553,111.906044 71.042618,112.187584 72.523888,112.199692 
	C78.836487,112.251289 85.152550,112.126114 91.460289,112.308899 
	C92.671463,112.344002 93.850891,113.474838 94.954041,114.520424 
	C87.555916,115.041039 80.248718,115.141396 72.213699,115.397232 
	C71.643425,116.067802 71.800949,116.582893 71.958473,117.097992 
	C78.880341,117.097992 85.802200,117.097992 92.724068,117.097992 
	C92.921570,117.563850 93.119064,118.029701 93.316566,118.495560 
	C92.652901,119.307289 92.040535,120.772026 91.317566,120.828819 
	C84.756546,121.344200 78.177689,121.752090 71.600113,121.821991 
	C70.475037,121.833946 68.682510,120.298500 68.314941,119.127419 
	C67.092346,115.232239 66.378578,111.177353 65.279175,106.346306 
	C75.256432,106.346306 85.181786,106.346306 95.569702,106.246979 
z"/>
<path fill="#3DBE3D" opacity="1.000000" stroke="none" 
	d="
M71.971390,116.830750 
	C71.800949,116.582893 71.643425,116.067802 71.764359,115.523888 
	C72.023315,115.851212 72.003807,116.207359 71.971390,116.830750 
z"/>
</svg>